<svg width="64" height="64" viewBox="0 0 64 64" fill="none" xmlns="http://www.w3.org/2000/svg">
<rect width="64" height="64" rx="10" fill="#FFBA8D"/>
<path d="M45.6015 35.416L50.1455 35.352V37.976C49.6335 37.8907 49.0362 37.848 48.3535 37.848C47.6708 37.848 46.9028 37.8907 46.0495 37.976C46.0495 41.2613 44.4708 44.5893 41.3135 47.96C38.1562 51.3307 34.3375 54.0613 29.8575 56.152C25.4202 58.2853 21.2815 59.352 17.4415 59.352C15.4362 59.352 13.7935 58.84 12.5135 57.816C11.2762 56.792 10.6575 55.448 10.6575 53.784C10.6575 51.3093 12.3002 48.728 15.5855 46.04C18.8708 43.352 22.7108 41.1333 27.1055 39.384C31.5002 37.6347 35.4682 36.6107 39.0095 36.312C38.5828 35.672 37.9215 35.1173 37.0255 34.648C36.1295 34.1787 34.2948 33.4533 31.5215 32.472C28.7482 31.448 26.7855 30.3387 25.6335 29.144C24.4815 27.9067 23.9055 26.1787 23.9055 23.96C23.9055 21.7413 25.1002 19.2027 27.4895 16.344C29.8788 13.4853 32.6948 11.096 35.9375 9.176C39.2228 7.21333 42.1028 6.232 44.5775 6.232C45.6868 6.232 46.6042 6.63733 47.3295 7.448C48.0548 8.216 48.4175 9.176 48.4175 10.328C48.4175 12.2053 47.2868 14.5733 45.0255 17.432C42.7642 20.248 40.2468 22.4027 37.4735 23.896L35.9375 21.72C37.6015 20.8667 39.0522 19.544 40.2895 17.752C41.5695 15.9173 42.2095 14.3387 42.2095 13.016C42.2095 11.6933 41.5055 11.032 40.0975 11.032C38.0922 11.032 35.7882 12.2907 33.1855 14.808C30.6255 17.2827 29.3455 19.608 29.3455 21.784C29.3455 23.2773 29.7295 24.4507 30.4975 25.304C31.2655 26.1573 33.2068 27.224 36.3215 28.504C39.4362 29.7413 41.6548 30.8507 42.9775 31.832C44.3002 32.7707 45.1748 33.9653 45.6015 35.416ZM17.0575 52.12C17.0575 54.168 18.7215 55.192 22.0495 55.192C23.8842 55.192 26.2522 54.5093 29.1535 53.144C32.0975 51.8213 34.6788 49.944 36.8975 47.512C39.1588 45.1227 40.2895 42.6693 40.2895 40.152C40.2895 39.8533 40.2255 39.4053 40.0975 38.808C34.2522 39.3627 28.9402 41.0053 24.1615 43.736C19.4255 46.4667 17.0575 49.2613 17.0575 52.12Z" fill="#FF0E5B"/>
</svg>
